<?xml version="1.0" encoding="UTF-8"?>
<svg id="Layer_1" data-name="Layer 1" xmlns="http://www.w3.org/2000/svg" xmlns:xlink="http://www.w3.org/1999/xlink" viewBox="0 0 1024 1024">
  <defs>
    <style>
      .cls-1 {
        fill: url(#linear-gradient-12);
      }

      .cls-1, .cls-2, .cls-3, .cls-4, .cls-5, .cls-6, .cls-7, .cls-8, .cls-9, .cls-10, .cls-11, .cls-12, .cls-13, .cls-14, .cls-15, .cls-16, .cls-17, .cls-18, .cls-19, .cls-20, .cls-21, .cls-22, .cls-23, .cls-24, .cls-25, .cls-26, .cls-27, .cls-28, .cls-29, .cls-30, .cls-31 {
        stroke-width: 0px;
      }

      .cls-2 {
        fill: #98bef8;
      }

      .cls-3 {
        fill: #e2f4fe;
      }

      .cls-4 {
        fill: url(#linear-gradient-17);
      }

      .cls-5 {
        fill: url(#linear-gradient-19);
      }

      .cls-6 {
        fill: url(#linear-gradient);
      }

      .cls-7 {
        fill: #b9d7fe;
      }

      .cls-8 {
        fill: url(#linear-gradient-21);
      }

      .cls-9 {
        fill: url(#linear-gradient-6);
      }

      .cls-10 {
        fill: url(#linear-gradient-15);
      }

      .cls-11 {
        fill: url(#linear-gradient-11);
      }

      .cls-12 {
        fill: url(#linear-gradient-5);
      }

      .cls-13 {
        fill: url(#linear-gradient-13);
      }

      .cls-14 {
        fill: url(#linear-gradient-23);
      }

      .cls-15 {
        fill: url(#linear-gradient-16);
      }

      .cls-16 {
        fill: url(#linear-gradient-22);
      }

      .cls-17 {
        fill: url(#linear-gradient-20);
      }

      .cls-18 {
        fill: url(#linear-gradient-14);
      }

      .cls-19 {
        fill: url(#linear-gradient-2);
      }

      .cls-20 {
        fill: url(#linear-gradient-7);
      }

      .cls-21 {
        fill: url(#linear-gradient-3);
      }

      .cls-22 {
        fill: #fd9091;
      }

      .cls-23 {
        fill: url(#linear-gradient-9);
      }

      .cls-24 {
        fill: #061c49;
      }

      .cls-25 {
        fill: url(#linear-gradient-8);
      }

      .cls-26 {
        fill: url(#linear-gradient-18);
      }

      .cls-27 {
        fill: #def1fd;
      }

      .cls-28 {
        fill: #fff;
      }

      .cls-29 {
        fill: url(#linear-gradient-10);
      }

      .cls-30 {
        fill: url(#linear-gradient-4);
      }

      .cls-31 {
        fill: #b9f4fe;
      }
    </style>
    <linearGradient id="linear-gradient" x1="920.96" y1="150.08" x2="790.93" y2="102.75" gradientUnits="userSpaceOnUse">
      <stop offset="0" stop-color="#6367c2"/>
      <stop offset="1" stop-color="#2598e1"/>
    </linearGradient>
    <linearGradient id="linear-gradient-2" x1="901.2" y1="399.54" x2="953.8" y2="300.6" gradientUnits="userSpaceOnUse">
      <stop offset="0" stop-color="#fbab7e"/>
      <stop offset="1" stop-color="#f7ce68"/>
    </linearGradient>
    <linearGradient id="linear-gradient-3" x1="110.71" y1="453.46" x2="153.1" y2="373.74" xlink:href="#linear-gradient-2"/>
    <linearGradient id="linear-gradient-4" x1="71.27" y1="264.91" x2="108.03" y2="195.79" xlink:href="#linear-gradient-2"/>
    <linearGradient id="linear-gradient-5" x1="846.75" y1="956.17" x2="116.17" y2="225.59" gradientUnits="userSpaceOnUse">
      <stop offset="0" stop-color="#2598e1"/>
      <stop offset="1" stop-color="#6367c2"/>
    </linearGradient>
    <linearGradient id="linear-gradient-6" x1="649.98" y1="286.18" x2="721.78" y2="214.38" gradientUnits="userSpaceOnUse">
      <stop offset="0" stop-color="#e2f4fe"/>
      <stop offset="1" stop-color="#c5f2f2"/>
    </linearGradient>
    <linearGradient id="linear-gradient-7" x1="187.84" y1="917.08" x2="370.31" y2="734.61" gradientUnits="userSpaceOnUse">
      <stop offset="0" stop-color="#a67c52"/>
      <stop offset="1" stop-color="#c69c6d"/>
    </linearGradient>
    <linearGradient id="linear-gradient-8" x1="608.63" y1="845.43" x2="923.11" y2="845.43" xlink:href="#linear-gradient-7"/>
    <linearGradient id="linear-gradient-9" x1="229.91" y1="747.04" x2="307.7" y2="669.25" gradientUnits="userSpaceOnUse">
      <stop offset="0" stop-color="#85ffbd"/>
      <stop offset="1" stop-color="#fffb7d"/>
    </linearGradient>
    <linearGradient id="linear-gradient-10" x1="126.5" y1="747.12" x2="168.11" y2="705.51" xlink:href="#linear-gradient-9"/>
    <linearGradient id="linear-gradient-11" x1="76.2" y1="646.73" x2="193.31" y2="529.61" xlink:href="#linear-gradient-9"/>
    <linearGradient id="linear-gradient-12" x1="843.3" y1="589.98" x2="982.3" y2="589.98" xlink:href="#linear-gradient-9"/>
    <linearGradient id="linear-gradient-13" x1="855.28" y1="754.73" x2="911.81" y2="698.19" xlink:href="#linear-gradient-9"/>
    <linearGradient id="linear-gradient-14" x1="747.56" y1="724.08" x2="780.36" y2="691.27" xlink:href="#linear-gradient-9"/>
    <linearGradient id="linear-gradient-15" x1="235.48" y1="707.87" x2="720.69" y2="222.67" xlink:href="#linear-gradient-6"/>
    <linearGradient id="linear-gradient-16" x1="407.08" y1="697.92" x2="479.92" y2="625.08" gradientUnits="userSpaceOnUse">
      <stop offset="0" stop-color="#36b7fd"/>
      <stop offset="1" stop-color="#6dcbfd"/>
    </linearGradient>
    <linearGradient id="linear-gradient-17" x1="570.08" y1="697.92" x2="642.92" y2="625.08" xlink:href="#linear-gradient-16"/>
    <linearGradient id="linear-gradient-18" x1="488.58" y1="742.92" x2="561.42" y2="670.08" xlink:href="#linear-gradient-16"/>
    <linearGradient id="linear-gradient-19" x1="498.08" y1="778.42" x2="551.92" y2="724.58" xlink:href="#linear-gradient-16"/>
    <linearGradient id="linear-gradient-20" x1="498.08" y1="823.42" x2="551.92" y2="769.58" xlink:href="#linear-gradient-16"/>
    <linearGradient id="linear-gradient-21" x1="281" y1="285" x2="503" y2="285" xlink:href="#linear-gradient-16"/>
    <linearGradient id="linear-gradient-22" x1="281" y1="241" x2="528" y2="241" xlink:href="#linear-gradient-16"/>
    <linearGradient id="linear-gradient-23" x1="281" y1="197" x2="528" y2="197" xlink:href="#linear-gradient-16"/>
  </defs>
  <g>
    <path class="cls-6" d="M913.97,166.41c-.08,8.78-6.6,15.54-15.14,14.68-15.97-1.62-28.87,3.17-39.43,15.11-2.18,2.45-5.06,4.28-8.92,7.47,0-6.81-.25-12.15.08-17.46.23-3.81-1.42-4.64-4.76-4.62-9.91.06-19.81-.11-29.72-.15-8.68-.02-14.79-5.38-14.86-14.11-.23-29.92-.24-59.85-.13-89.77.03-7.8,5.21-13.02,13.11-13.08,28.93-.19,57.87-.2,86.8-.07,7.32.03,12.99,5.77,13.03,13.42.17,29.53.18,59.06-.06,88.58Z"/>
    <path class="cls-28" d="M848.5,153.63c-4.4,0-8.34-.77-11.83-2.3-3.49-1.54-6.25-3.78-8.28-6.73-2.04-2.95-3.05-6.54-3.05-10.77s1.02-7.79,3.05-10.65c2.03-2.86,4.86-5.02,8.47-6.48,3.61-1.45,7.74-2.18,12.39-2.18h16.94v-3.49c0-2.91-.92-5.29-2.74-7.16-1.83-1.87-4.73-2.8-8.72-2.8s-6.81.89-8.72,2.68c-1.91,1.79-3.16,4.09-3.74,6.91l-14.45-4.86c1-3.15,2.59-6.04,4.79-8.66,2.2-2.62,5.15-4.73,8.84-6.35,3.69-1.62,8.2-2.43,13.51-2.43,8.14,0,14.57,2.04,19.31,6.1,4.73,4.07,7.1,9.96,7.1,17.69v23.04c0,2.49,1.16,3.74,3.49,3.74h4.98v12.95h-10.46c-3.07,0-5.61-.75-7.6-2.24-1.99-1.49-2.99-3.49-2.99-5.98v-.12h-2.37c-.33,1-1.08,2.3-2.24,3.92-1.16,1.62-2.99,3.05-5.48,4.3s-5.9,1.87-10.21,1.87ZM851.24,140.93c4.4,0,7.99-1.22,10.77-3.67,2.78-2.45,4.17-5.71,4.17-9.78v-1.25h-15.82c-2.91,0-5.19.62-6.85,1.87-1.66,1.25-2.49,2.99-2.49,5.23s.87,4.07,2.62,5.48c1.74,1.41,4.28,2.12,7.6,2.12Z"/>
  </g>
  <path class="cls-19" d="M954.24,323.33l22.38,9.2c15.68,6.44,15.68,28.65,0,35.09l-22.38,9.2-9.2,22.38c-6.44,15.68-28.65,15.68-35.09,0l-9.2-22.38-22.38-9.2c-15.68-6.44-15.68-28.65,0-35.09l22.38-9.2,9.2-22.38c6.44-15.68,28.65-15.68,35.09,0l9.2,22.38Z"/>
  <path class="cls-21" d="M155.06,390.44l13.65,5.61c15.68,6.44,15.68,28.65,0,35.09l-13.65,5.61-5.61,13.65c-6.44,15.68-28.65,15.68-35.09,0l-5.61-13.65-13.65-5.61c-15.68-6.44-15.68-28.65,0-35.09l13.65-5.61,5.61-13.65c6.44-15.68,28.65-15.68,35.09,0l5.61,13.65Z"/>
  <path class="cls-30" d="M110.96,209.04l9.65,4.4c14.49,6.61,14.49,27.19,0,33.8l-9.65,4.4-4.4,9.65c-6.61,14.49-27.19,14.49-33.8,0l-4.4-9.65-9.65-4.4c-14.49-6.61-14.49-27.19,0-33.8l9.65-4.4,4.4-9.65c6.61-14.49,27.19-14.49,33.8,0l4.4,9.65Z"/>
  <g>
    <path class="cls-12" d="M1001.42,590.21c-9.08-2.21-18.42-2.05-27.6-3.31h-12.24c5.72-11.36,9.3-22.97,13.22-34.46.13-1.37.03-2.82.42-4.11,7.03-23.33,6.91-47.35,6.81-71.34-.03-6.97-.93-13.79-6.89-18.66-8.09-2.17-15.6.19-22.96,3.12-29.82,11.87-53.84,31.32-73.46,56.46-.97,1.25-1.9,2.52-2.9,3.75-.24.28-.67.41-1.12.67-6.96-9.73-15.78-17.66-25.56-24.33-5.06-3.46-6.4-7.37-6.37-13.14.18-39.22.08-78.44.02-117.66-.02-19.01-.38-38.03-.11-57.04.11-8.05-2.34-14.23-8.03-20.06-33.87-34.72-67.46-69.72-101.13-104.64-1.23-1.27-2.31-2.68-3.46-4.03-1.05-.88-2.18-1.67-3.12-2.64-28.87-29.67-57.87-59.2-86.43-89.16-5.51-5.78-11.72-7.87-18.93-7.87-105.04-.07-210.07-.01-315.1-.01-27.88,0-52.32,9.52-73.29,27.47-28.05,24.01-43.52,54.22-43.28,91.78.18,27.55.07,55.1.01,82.64-.02,11.09-.23,22.18-.36,33.27.13,21,.33,42.01.36,63.01.05,36.47-.06,72.95.04,109.42,0,3.9-.91,6.34-4.52,8.62-9.4,5.95-17.74,13.33-24.66,22.1-2.31,2.94-3.21,2.63-5.28-.3-9.58-13.53-21.96-24.37-34.41-35.1-15.25-11.06-31.13-20.9-49.63-25.65-13.49-3.47-20.46,1.61-21.14,15.6-1.67,34.52,2.39,68.17,15.63,100.37,1.84,3.68,3.68,7.36,5.95,11.91h-10.19c-1.97.06-3.95.2-5.93.17-11.68-.13-23.24.9-34.66,3.46-5.44,1.22-8.91,3.86-9.85,10.04-1.07,7.03,2.17,12.36,5.46,17.65,13.18,21.23,30.91,37.87,52.22,50.79,12.35,7.48,25.57,13.1,39.92,18.35-1.9.65-2.92,1.05-3.96,1.35-9.73,2.74-19.06,6.54-27.94,11.33-9.43,5.08-11.5,11.77-6.73,21.15,4.24,8.36,10.38,15.42,16.54,22.36,2.06,2.33,2.62,3.9.79,6.55-3.67,5.33-5.1,11.64-5.67,17.86-2.83,31.25,2.94,60.95,17.09,88.99,11.97,23.73,28.92,43.28,49.99,59.35,15.93,9.97,32.09,19.44,50.17,25.1,14.22,4.45,28.66,7.28,43.66,7.27,185.43-.09,370.86.01,556.29-.26,20.68-.03,39.79-7.54,58.37-16.14,10.07-4.67,19.28-10.74,28.37-17.01,3.62-3.04,7.4-5.92,10.84-9.15,35.09-33,53.94-73.35,54.85-121.74.25-13.08-.06-26.09-8.35-37.27-1.57-2.12.25-3.13,1.29-4.46,4.64-5.89,9.76-11.42,13.7-17.85,7.76-12.64,5.69-19.72-7.76-26.46-9.5-4.76-19.44-8.28-30.17-10.69.78-.66,1.15-1.2,1.64-1.37,25.57-8.92,48.67-21.8,66.97-42.21,9.27-10.34,17.16-21.7,22.67-34.5,3.91-9.12-.54-17.02-10.1-19.34ZM643.05,135.66c.08,0,.87,1.13,1.32,1.72,42.89,43.69,85.78,87.39,128.65,131.1,2.48,2.53,4.79,5.23,7.18,7.85,6.75,5.73,12.1,12.73,18.13,18.98-1.44,1.97-2.95,1.3-4.22,1.3-39,.03-78.01-.34-117.02.12-21.37.26-34.96-12.44-34.92-34.85.04-30.89.02-61.78.06-92.66.01-1.95-.41-3.98.66-5.82-.17-7.53-.35-15.06-.53-22.59-.04-1.78-1.5-3.73.69-5.15ZM73.95,641.56c-11.14-8.24-21.36-17.4-30.85-29.16,10.89-.81,20.66.32,30.37,1.2,15.55,1.42,30.77,4.63,45.67,9.41,8.18,2.62,12.66-1.42,11.56-9.98-1.5-11.61-8.78-18.11-23.48-20.01-3.66-.48-5.63-1.86-7.3-4.83-11.96-21.3-18.74-44.35-22.74-68.25-1.84-11.02-2.93-22.2-2.14-34.11,13.21,6.75,25.33,14,36.31,23.15,16.2,13.5,29.84,28.89,37.53,48.92,2.94,7.66,4.51,15.51,4.48,23.71-.01,3.99.57,7.9,2.32,11.55,2.77,5.79,8.27,8.41,14.79,7.1,5.88-1.18,8.83-5.22,9.06-12.06.44-13.42-2.25-26.33-6.48-38.96-.71-2.13-1.62-3.93.13-6.04,5.02-6.04,9.68-12.42,16.26-17.46v169.8c-16.39-12.98-35.23-13.6-53.91-14.61-4.17-.22-7.29.04-7.58-5.89-.23-4.69-3.49-8.35-8.41-10.51-15.6-6.82-31.69-12.69-45.59-22.97ZM101.32,721.59c-3.66-3.44-2.46-4.96,1.93-5.44,18.78-7.24,38.12-9.59,58.05-6.52,1.2.19,3-.4,3.02,1.82,12.18-1.64,21.61,10.26,24.76,22.43,2,7.76,1.97,7.4-6.3,7.82-13.45.68-26.96-.89-40.29.19-14.7,1.19-25.41-5.21-35.47-14.29-2.04-1.84-3.69-4.13-5.7-6.01ZM422.96,894.27c-.94,15.05-12.8,25.74-28.12,25.78-51.1.12-102.19.52-153.28-.03-51.74-.55-103.6-38.34-121.91-86.94-6.94-18.39-10.17-37.14-9.93-56.68.05-3.92.63-5.71,5.13-5.33,6.29.53,12.64.3,18.97.39,4.07-1.21,8.26-.75,12.4-.76,80.84-.09,161.68-.13,242.52-.19,12.96-.01,24.21,3.34,31.35,15.31,2.61,4.38,4.18,9.03,4.15,14.05-.11,17.03.28,34.08-1.09,51.08.59,14.44.72,28.91-.19,43.32ZM224.83,736.93c8.81-22.79,22.26-42.29,40.94-58.11,8.64-7.31,17.92-13.68,27.89-19.08,3.42-1.85,4.39-1.56,4.76,2.75.97,11.35.05,22.85-3.04,33.35-4.41,14.96-10.55,29.69-22.28,41.06-3.63,3.51-7.47,5.43-12.63,5.09-4.93-.32-9.9-.07-14.85-.07v.25c-5.74,0-11.51-.34-17.22.1-5.1.4-5.03-1.58-3.57-5.34ZM587.16,774.53c-5.17,9.41-6.57,19.79-6.62,30.36-.11,22.17-.08,44.33-.11,66.5.27,6.91,1.25,13.89.57,20.7-.44,4.47-4.98,1.59-7.71,1.93h-9.89c-8.97.79-17.95.79-26.92.05-24.33-.04-48.65-.08-72.98-.12-1.49.52-2.98.47-4.46-.03l-1.47.03c-.71-.01-1.42-.02-2.12-.02-2.16.26-4.73.96-3.03-2.86.18-6.19.36-12.37.54-18.56-.08-23.15-.11-46.3-.27-69.45-.11-14.37-3.77-27.6-13.09-38.92-9.75-11.85-22.27-18.77-37.47-20.3-22.29-2.24-44.66-.35-66.99-.9-7.12-.17-14.24-.16-21.36-.24-3.36.09-6.71.19-10.06.25-.94,0-1.88-.14-2.9-.21-.31-2.74,1.8-4.05,2.86-5.76,15.75-25.43,21.4-53.11,18.8-82.71-.37-4.12-.37-8.28-.54-12.43-4.5-11.44-10.29-14.44-22.2-10.95-19.35,5.67-35.75,16.58-51.06,29.34-2.11,1.76-4.13,3.63-6.2,5.44-7.67,8.62-15.82,16.83-22.74,26.46v-62.76c.02-144.9.16-289.8-.01-434.7-.05-44.81,42.45-84.5,83.11-82.8,23.95,1.01,47.96.13,71.95.14,76.91,0,153.82.11,230.72-.13,6.22-.02,7.37,1.86,7.35,7.53-.1,50.14.07,100.29.17,150.43.75,16.24,6.09,30.52,18.27,41.7,9.69,8.89,21.15,13.75,34.38,13.77,47.1.07,94.19.01,141.28.11,2.12.01,6.33-1.96,5.17,3.45.01.4.02.81.03,1.22.67,3.55.53,7.11,0,10.67.06,34.09.18,68.17.19,102.26.03,81.46.01,162.91.01,244.37v5.13c-5.13-9.22-11.52-15.34-16.82-22.31-11.67-11.01-23.74-21.49-38.08-28.97-8.33-4.34-16.61-8.75-25.93-10.85-9.72-2.18-13.93-.64-19.34,7.93-.11.49-.23.98-.34,1.47-.25.67-.49,1.33-.73,1.99-.4,7.88-.9,15.76-1.17,23.64-.96,27.88,6.44,53.37,22.49,76.96-5.78.87-11.15.6-16.53.3-22.76.05-45.53.41-68.29.08-26.07-.37-47.33,7.91-60.46,31.77ZM803.66,742.07c-5.3-.39-10.66-.09-16-.09,0,.14,0,.27,0,.4-4.94,0-9.89-.04-14.84.01-4.75.06-8.42-1.47-11.98-5.04-14.36-14.43-21.07-32.32-24.86-51.74-1.53-7.83-1.24-15.71-1.35-23.61-.07-5.25,2.56-4.13,5.28-2.68,2.74,1.46,5.25,3.36,7.88,5.04,27.62,17.69,48.43,40.97,59.74,72.22,1.63,4.49,1.11,5.87-3.86,5.49ZM854.17,901.72c-21.02,12.67-44.07,18.73-68.98,18.48-48.51-.49-97.03-.1-145.54-.17-16.94-.02-28-10.62-29.33-27.71-.84-12.93-.42-25.87-.23-38.81-1.04-19.74-2.62-39.58-.13-59.22,1.74-13.72,12.41-22.6,26.26-22.92,26.13-.61,52.28-.55,78.43-.59,58.23-.09,116.47-.08,174.71-.08,3.34,0,6.73-.31,10.02.69,6.53-.09,13.05-.06,19.57-.3,3.08-.12,4.02.95,4.1,4.06,1.42,55.49-21.42,97.94-68.88,126.57ZM931.08,717.46c-.31,2.28-1.98,3.37-3.29,4.69-6.23,7.87-14.14,13.62-22.99,18.18-2.21,1.14-4.55,1.12-6.92,1.16-16.78.25-33.56.51-50.34.75-6.55.1-6.55-.02-4.94-6.64,2.87-11.86,8.46-21.22,21.43-24.03,23.05-6.85,45.05-1.98,67.05,5.89ZM947.9,646.41c-8.44,5.6-17.62,9.77-27.03,13.46-6.65,2.62-13.02,5.68-17.56,11.53-.13,1.13-.44,2.28-.36,3.4.42,5.7-2.66,6.94-7.5,6.04-9.62,1.6-19.53.7-29.02,3.35-5.07,1.41-10.08,3.02-15.12,4.54-2.86.86-5.01,2.83-8.01,5.52v-169.29c7.31,5.43,12.22,12.44,17.25,19.31,1.36,1.85-.15,3.8-.85,5.6-4.44,11.51-7.09,23.36-7.09,35.75,0,10.05,5,15.27,14.14,14.73,5.54-.32,12.25-7.41,12.07-14.17-.74-28.24,13.55-49.23,32.15-68.23,13.14-13.42,28.66-23.46,45.89-32.23,1,7.25.62,14.07.18,20.84-1.74,26.73-9.08,51.96-20.43,76.16-2.85,6.07-6.17,10.72-13.58,11.15-2.67.16-5.25,1.66-7.93,2.25-9.48,2.07-12.73,8.83-13.66,17.56-.75,7.14,3.92,11.65,10.75,9.53,21.07-6.54,42.47-10.72,64.63-10.23,1.49.04,2.99.01,5.48.01-9.66,14-21.13,24.63-34.4,33.42Z"/>
    <path class="cls-9" d="M798.33,295.31c-1.44,1.97-2.95,1.3-4.22,1.3-39,.03-78.01-.34-117.02.12-21.37.26-34.96-12.44-34.92-34.85.04-30.89.02-61.78.06-92.66.01-1.95-.41-3.98.66-5.82-.17-7.53-.35-15.06-.53-22.59-.04-1.78-1.5-3.73.69-5.15.08,0,.87,1.13,1.32,1.72,42.89,43.69,85.78,87.39,128.65,131.1,2.48,2.53,4.79,5.23,7.18,7.85,6.75,5.73,12.1,12.73,18.13,18.98Z"/>
    <path class="cls-20" d="M423.15,850.95c.59,14.44.72,28.91-.19,43.32-.94,15.05-12.8,25.74-28.12,25.78-51.1.12-102.19.52-153.28-.03-51.74-.55-103.6-38.34-121.91-86.94-6.94-18.39-10.17-37.14-9.93-56.68.05-3.92.63-5.71,5.13-5.33,6.29.53,12.64.3,18.97.39,4.07-1.21,8.26-.75,12.4-.76,80.84-.09,161.68-.13,242.52-.19,12.96-.01,24.21,3.34,31.35,15.31,2.61,4.38,4.18,9.03,4.15,14.05-.11,17.03.28,34.08-1.09,51.08Z"/>
    <path class="cls-25" d="M854.17,901.72c-21.02,12.67-44.07,18.73-68.98,18.48-48.51-.49-97.03-.1-145.54-.17-16.94-.02-28-10.62-29.33-27.71-.84-12.93-.42-25.87-.23-38.81-1.04-19.74-2.62-39.58-.13-59.22,1.74-13.72,12.41-22.6,26.26-22.92,26.13-.61,52.28-.55,78.43-.59,58.23-.09,116.47-.08,174.71-.08,3.34,0,6.73-.31,10.02.69,6.53-.09,13.05-.06,19.57-.3,3.08-.12,4.02.95,4.1,4.06,1.42,55.49-21.42,97.94-68.88,126.57Z"/>
    <path class="cls-23" d="M295.38,695.84c-4.41,14.96-10.55,29.69-22.28,41.06-3.63,3.51-7.47,5.43-12.63,5.09-4.93-.32-9.9-.07-14.85-.07v.25c-5.74,0-11.51-.34-17.22.1-5.1.4-5.03-1.58-3.57-5.34,8.81-22.79,22.26-42.29,40.94-58.11,8.64-7.31,17.92-13.68,27.89-19.08,3.42-1.85,4.39-1.56,4.76,2.75.97,11.35.05,22.85-3.04,33.35Z"/>
    <path class="cls-29" d="M182.78,741.7c-13.45.68-26.96-.89-40.29.19-14.7,1.19-25.41-5.21-35.47-14.29-2.04-1.84-3.69-4.13-5.7-6.01-3.66-3.44-2.46-4.96,1.93-5.44,18.78-7.24,38.12-9.59,58.05-6.52,1.2.19,3-.4,3.02,1.82,12.18-1.64,21.61,10.26,24.76,22.43,2,7.76,1.97,7.4-6.3,7.82Z"/>
    <path class="cls-11" d="M189.44,525.74v169.8c-16.39-12.98-35.23-13.6-53.91-14.61-4.17-.22-7.29.04-7.58-5.89-.23-4.69-3.49-8.35-8.41-10.51-15.6-6.82-31.69-12.69-45.59-22.97-11.14-8.24-21.36-17.4-30.85-29.16,10.89-.81,20.66.32,30.37,1.2,15.55,1.42,30.77,4.63,45.67,9.41,8.18,2.62,12.66-1.42,11.56-9.98-1.5-11.61-8.78-18.11-23.48-20.01-3.66-.48-5.63-1.86-7.3-4.83-11.96-21.3-18.74-44.35-22.74-68.25-1.84-11.02-2.93-22.2-2.14-34.11,13.21,6.75,25.33,14,36.31,23.15,16.2,13.5,29.84,28.89,37.53,48.92,2.94,7.66,4.51,15.51,4.48,23.71-.01,3.99.57,7.9,2.32,11.55,2.77,5.79,8.27,8.41,14.79,7.1,5.88-1.18,8.83-5.22,9.06-12.06.44-13.42-2.25-26.33-6.48-38.96-.71-2.13-1.62-3.93.13-6.04,5.02-6.04,9.68-12.42,16.26-17.46Z"/>
    <path class="cls-1" d="M982.3,612.99c-9.66,14-21.13,24.63-34.4,33.42-8.44,5.6-17.62,9.77-27.03,13.46-6.65,2.62-13.02,5.68-17.56,11.53-.13,1.13-.44,2.28-.36,3.4.42,5.7-2.66,6.94-7.5,6.04-9.62,1.6-19.53.7-29.02,3.35-5.07,1.41-10.08,3.02-15.12,4.54-2.86.86-5.01,2.83-8.01,5.52v-169.29c7.31,5.43,12.22,12.44,17.25,19.31,1.36,1.85-.15,3.8-.85,5.6-4.44,11.51-7.09,23.36-7.09,35.75,0,10.05,5,15.27,14.14,14.73,5.54-.32,12.25-7.41,12.07-14.17-.74-28.24,13.55-49.23,32.15-68.23,13.14-13.42,28.66-23.46,45.89-32.23,1,7.25.62,14.07.18,20.84-1.74,26.73-9.08,51.96-20.43,76.16-2.85,6.07-6.17,10.72-13.58,11.15-2.67.16-5.25,1.66-7.93,2.25-9.48,2.07-12.73,8.83-13.66,17.56-.75,7.14,3.92,11.65,10.75,9.53,21.07-6.54,42.47-10.72,64.63-10.23,1.49.04,2.99.01,5.48.01Z"/>
    <path class="cls-13" d="M931.08,717.46c-.31,2.28-1.98,3.37-3.29,4.69-6.23,7.87-14.14,13.62-22.99,18.18-2.21,1.14-4.55,1.12-6.92,1.16-16.78.25-33.56.51-50.34.75-6.55.1-6.55-.02-4.94-6.64,2.87-11.86,8.46-21.22,21.43-24.03,23.05-6.85,45.05-1.98,67.05,5.89Z"/>
    <path class="cls-18" d="M803.66,742.07c-5.3-.39-10.66-.09-16-.09,0,.14,0,.27,0,.4-4.94,0-9.89-.04-14.84.01-4.75.06-8.42-1.47-11.98-5.04-14.36-14.43-21.07-32.32-24.86-51.74-1.53-7.83-1.24-15.71-1.35-23.61-.07-5.25,2.56-4.13,5.28-2.68,2.74,1.46,5.25,3.36,7.88,5.04,27.62,17.69,48.43,40.97,59.74,72.22,1.63,4.49,1.11,5.87-3.86,5.49Z"/>
    <path class="cls-10" d="M812.35,443.02c.03,81.46.01,162.91.01,244.37v5.13c-5.13-9.22-11.52-15.34-16.82-22.31-11.67-11.01-23.74-21.49-38.08-28.97-8.33-4.34-16.61-8.75-25.93-10.85-9.72-2.18-13.93-.64-19.34,7.93-.11.49-.23.98-.34,1.47-.25.67-.49,1.33-.73,1.99-.4,7.88-.9,15.76-1.17,23.64-.96,27.88,6.44,53.37,22.49,76.96-5.78.87-11.15.6-16.53.3-22.76.05-45.53.41-68.29.08-26.07-.37-47.33,7.91-60.46,31.77-5.17,9.41-6.57,19.79-6.62,30.36-.11,22.17-.08,44.33-.11,66.5.27,6.91,1.25,13.89.57,20.7-.44,4.47-4.98,1.59-7.71,1.93h-9.89c-8.97.79-17.95.79-26.92.05-24.33-.04-48.65-.08-72.98-.12-1.49.52-2.98.47-4.46-.03l-1.47.03c-.71-.01-1.42-.02-2.12-.02-2.16.26-4.73.96-3.03-2.86.18-6.19.36-12.37.54-18.56-.08-23.15-.11-46.3-.27-69.45-.11-14.37-3.77-27.6-13.09-38.92-9.75-11.85-22.27-18.77-37.47-20.3-22.29-2.24-44.66-.35-66.99-.9-7.12-.17-14.24-.16-21.36-.24-3.36.09-6.71.19-10.06.25-.94,0-1.88-.14-2.9-.21-.31-2.74,1.8-4.05,2.86-5.76,15.75-25.43,21.4-53.11,18.8-82.71-.37-4.12-.37-8.28-.54-12.43-4.5-11.44-10.29-14.44-22.2-10.95-19.35,5.67-35.75,16.58-51.06,29.34-2.11,1.76-4.13,3.63-6.2,5.44-7.67,8.62-15.82,16.83-22.74,26.46v-62.76c.02-144.9.16-289.8-.01-434.7-.05-44.81,42.45-84.5,83.11-82.8,23.95,1.01,47.96.13,71.95.14,76.91,0,153.82.11,230.72-.13,6.22-.02,7.37,1.86,7.35,7.53-.1,50.14.07,100.29.17,150.43.75,16.24,6.09,30.52,18.27,41.7,9.69,8.89,21.15,13.75,34.38,13.77,47.1.07,94.19.01,141.28.11,2.12.01,6.33-1.96,5.17,3.45.01.4.02.81.03,1.22.67,3.55.53,7.11,0,10.67.06,34.09.18,68.17.19,102.26Z"/>
    <path class="cls-2" d="M711.85,639.79c-.45-.62-.25-1.1.34-1.47-.12.49-.23.98-.34,1.47Z"/>
    <path class="cls-27" d="M812.16,330.09c-.16-.28-.35-.55-.44-.86-.02-.07.27-.24.42-.36,0,.41.02.81.03,1.22Z"/>
    <path class="cls-24" d="M374.05,414.45c-37.72,1.03-68.28,30.44-67.8,69.53.46,37.93,30.77,66.76,69.26,66.26,38.2-.49,69.27-32.19,68.84-70.24-.41-37.46-31.21-66.62-70.3-65.55ZM345.5,491.83c-5.15,0-10.08-4.93-10.23-10.2-.15-5.19,4.8-10.12,10.18-10.15,5.27-.03,9.88,4.74,9.99,10.31.12,5.75-4.15,10.05-9.94,10.04ZM411.2,508.93c-.66,7.17-13.79,18.82-21.13,18.73-1.73.06-3.2-.44-3.76-2.23-.66-2.13.46-3.41,2.37-4.1,7.59-2.74,13.53-7.31,16.66-15,.63-1.56,1.74-2.1,3.3-1.56,1.96.68,2.74,2.12,2.56,4.16ZM422.71,459.71c-.46,12.85-11.77,23.94-24.12,23.64-13.8-.34-25.47-12.36-25.31-26.07.16-13.33,11.38-23.89,25.13-23.63,12.25.23,24.74,13.63,24.3,26.06Z"/>
    <path class="cls-7" d="M411.2,508.93c-.66,7.17-13.79,18.82-21.13,18.73-1.73.06-3.2-.44-3.76-2.23-.66-2.13.46-3.41,2.37-4.1,7.59-2.74,13.53-7.31,16.66-15,.63-1.56,1.74-2.1,3.3-1.56,1.96.68,2.74,2.12,2.56,4.16Z"/>
    <path class="cls-31" d="M355.44,481.79c.12,5.75-4.15,10.05-9.94,10.04-5.15,0-10.08-4.93-10.23-10.2-.15-5.19,4.8-10.12,10.18-10.15,5.27-.03,9.88,4.74,9.99,10.31Z"/>
    <path class="cls-3" d="M422.71,459.71c-.46,12.85-11.77,23.94-24.12,23.64-13.8-.34-25.47-12.36-25.31-26.07.16-13.33,11.38-23.89,25.13-23.63,12.25.23,24.74,13.63,24.3,26.06Z"/>
    <path class="cls-24" d="M660.42,414.41c-39.95-.61-71.75,29.79-71.6,68.3.13,34.96,29.25,67.53,68.09,67.62,38.93.08,69.69-30.07,69.72-68.19.19-35.1-25.57-67.1-66.21-67.73ZM627.67,491.86c-5.5-.02-10.4-4.63-10.49-9.86-.09-5.8,4.49-10.4,10.42-10.45,5.26-.06,9.95,4.75,10.04,10.27.09,5.71-4.24,10.07-9.97,10.04ZM695.42,508.67c-.69,3.55-2.47,6.6-4.83,9.3-4.41,5.06-10.12,7.9-15.3,9.57-2.9.14-4.34-.21-4.81-2.15-.46-1.87.42-3.04,2.08-3.7,7.78-3.09,14.02-7.83,17.36-15.83.62-1.49,2-1.75,3.49-1.05,1.67.78,2.34,2.15,2.01,3.86ZM679.79,483.34c-15.11-.34-26.24-11.37-25.97-25.74.27-13.96,11.25-24.37,25.35-24.03,12.54.3,24.45,13,24.41,26.03-.04,13.08-11.01,24.03-23.79,23.74Z"/>
    <path class="cls-7" d="M695.42,508.67c-.69,3.55-2.47,6.6-4.83,9.3-4.41,5.06-10.12,7.9-15.3,9.57-2.9.14-4.34-.21-4.81-2.15-.46-1.87.42-3.04,2.08-3.7,7.78-3.09,14.02-7.83,17.36-15.83.62-1.49,2-1.75,3.49-1.05,1.67.78,2.34,2.15,2.01,3.86Z"/>
    <path class="cls-31" d="M637.64,481.82c.09,5.71-4.24,10.07-9.97,10.04-5.5-.02-10.4-4.63-10.49-9.86-.09-5.8,4.49-10.4,10.42-10.45,5.26-.06,9.95,4.75,10.04,10.27Z"/>
    <path class="cls-3" d="M703.58,459.6c-.04,13.08-11.01,24.03-23.79,23.74-15.11-.34-26.24-11.37-25.97-25.74.27-13.96,11.25-24.37,25.35-24.03,12.54.3,24.45,13,24.41,26.03Z"/>
    <path class="cls-24" d="M516.74,554.9c-22.29-.04-39.7-13.9-44.41-35.36-1.89-8.61,1.96-16.22,9.15-18.1,8.06-2.12,14.02,1.96,16.81,11.49,4.2,14.36,18.19,19.48,30.32,11.25,3.77-2.56,5.33-6.24,6.4-10.3,2.6-9.86,8.85-14.55,16.74-12.45,7.56,2.01,11.39,10.02,9.2,19.22-4.89,20.47-22.72,34.3-44.2,34.26Z"/>
    <g>
      <ellipse class="cls-22" cx="332" cy="574.5" rx="38" ry="18.5"/>
      <ellipse class="cls-22" cx="708" cy="574.5" rx="38" ry="18.5"/>
    </g>
    <g>
      <g>
        <rect class="cls-15" x="375" y="651" width="137" height="21" rx="10.5" ry="10.5"/>
        <rect class="cls-4" x="538" y="651" width="137" height="21" rx="10.5" ry="10.5"/>
      </g>
      <rect class="cls-26" x="456.5" y="696" width="137" height="21" rx="10.5" ry="10.5"/>
      <rect class="cls-5" x="475.5" y="741" width="99" height="21" rx="10.5" ry="10.5"/>
      <rect class="cls-17" x="475.5" y="786" width="99" height="21" rx="10.5" ry="10.5"/>
    </g>
    <g>
      <rect class="cls-8" x="281" y="273" width="222" height="24" rx="12" ry="12"/>
      <rect class="cls-16" x="281" y="229" width="247" height="24" rx="12" ry="12"/>
      <rect class="cls-14" x="281" y="185" width="247" height="24" rx="12" ry="12"/>
    </g>
  </g>
</svg>